<?xml version="1.0" encoding="utf-8"?>
<!-- Generator: Adobe Illustrator 25.0.1, SVG Export Plug-In . SVG Version: 6.00 Build 0)  -->
<svg version="1.1" id="Layer_1" xmlns="http://www.w3.org/2000/svg" xmlns:xlink="http://www.w3.org/1999/xlink" x="0px" y="0px"
	 viewBox="0 0 314 116" style="enable-background:new 0 0 314 116;" xml:space="preserve">
<style type="text/css">
	.st0{fill:#FFFFFF;}
	.st1{fill:#263238;}
	.st2{opacity:0.2;fill:#FFFFFF;enable-background:new    ;}
	.st3{opacity:0.2;enable-background:new    ;}
	.st4{opacity:0.5;fill:#FFFFFF;enable-background:new    ;}
	.st5{opacity:0.3;fill:#FFFFFF;enable-background:new    ;}
	.st6{opacity:0.4;}
	.st7{fill:#DFE7EF;}
	.st8{opacity:0.6;}
	.st9{fill:#F8FCFF;}
	.st10{opacity:0.25;fill:#FFFFFF;}
</style>
<g>
	<path class="st0" d="M63.4,80.1c-4.8,15.9-16.7,27.2-30.6,27.2C14.6,107.3,0,88.3,0,64.8C0,41.1,14.6,22,32.7,22
		c11.6,0,21.9,7.9,27.7,19.9l-18,13.7l-6,4.6c0,0,0.4-0.8,0.9-2.2c0.6-2,0.9-4.1,0.9-6.2c0-4.1-1.1-8.1-3.3-11.6
		c-4.5-7-9.2-11.5-12.5-11.5c-0.4,0-0.8,0.1-1.1,0.2c-3,0.9-4.8,6.1-4.8,13.6c0,7.1,1.5,16.2,4.6,25.7C26.6,85,35.2,96.8,44.4,96.8
		c1.5,0,3.1-0.4,4.8-1.1C58.2,91.5,63.4,80.1,63.4,80.1z"/>
	<path class="st0" d="M73.3,79.5c0,3.6,3.1,6.8,7.4,6.8h15.6l4.8,20.1H79c-7.9,0-13.9-5.9-13.9-12.6c0-1.2,0.2-2.4,0.6-3.6l2-6.4
		l15.4-49.9c0.2-0.9,0.4-1.8,0.4-2.6c0-3.6-2-6.8-5.4-8.3h30l17.8,72.2l0.3,0.9c0.5,2.2,1.6,4.2,3,6.1c1.5,1.7,3.4,3.2,5.6,4.3
		h-28.9l-18.2-75l-14.1,46C73.4,78.1,73.3,78.9,73.3,79.5z"/>
	<path class="st0" d="M168.3,102.9c12,0,23-6.6,28.7-17.2l-4.1,20.6h-56.8c2.7-1,4.9-2.8,6.6-5.1c1.5-2.3,2.4-5.1,2.4-7.9V35.7
		c0-5.6-3.6-10.8-9-12.8h38c-2.6,1-4.9,2.7-6.5,5.1c-1.5,2.2-2.4,4.9-2.4,7.8V103L168.3,102.9L168.3,102.9z"/>
	<path class="st0" d="M227.7,93.4c0,5.8,3.6,10.9,9,12.9h-38c2.6-1,4.9-2.8,6.5-5.1l1.2-2.1c0.8-1.8,1.2-3.7,1.2-5.8V66.8
		l-15.4-32.3c-2.4-5.3-5.8-9.6-11.3-11.7h36.8c-2.8,1.3-4.4,4.1-4.4,7.1c0,1.1,0.2,2.2,0.7,3.3l12,25.2l7.9-14.7
		c1.7-3.6,2.4-6.9,2.4-9.6c0-7.2-4.3-11.3-4.3-11.3h21c-6.4,4.1-15.3,20.5-15.3,20.6l-8,15.1c-1.3,2.5-2,5.2-2,8.1V93.4L227.7,93.4z
		"/>
	<path class="st1" d="M285,67.1c6.5-1.6,7.9-10.9,7.9-10.9l-2.7-0.2c0,0-2.1,7.2-6.1,7.6c-5,0.5-10.7-9.2-10.7-9.2h-4.3
		C269.1,54.5,276.2,69.3,285,67.1z"/>
	<path class="st2" d="M273.5,54.4c0,0,0.5,0.8,1.2,1.9l0.2,0.3c0.4,0.6,0.9,1.2,1.4,1.9l0.3,0.3c0.5,0.6,1,1.2,1.6,1.7
		c0.1,0.1,0.2,0.2,0.3,0.3c0.5,0.5,1,0.9,1.6,1.3c0.1,0.1,0.2,0.2,0.3,0.2c0.4,0.3,0.8,0.5,1.3,0.7c0.1,0,0.3,0.1,0.4,0.2
		c0.5,0.2,0.9,0.3,1.4,0.3c0.2,0,0.3,0,0.4,0h0.2c0.5-0.1,1.1-0.3,1.5-0.5c0.1-0.1,0.3-0.2,0.4-0.2c0.4-0.3,0.7-0.6,1-0.9
		c0.1-0.1,0.2-0.2,0.3-0.3c0.4-0.5,0.7-1,1.1-1.5c0.1-0.1,0.2-0.3,0.2-0.4c0.6-1.2,1.1-2.4,1.5-3.6l2.7,0.2
		c-0.3,1.9-0.9,3.7-1.8,5.4c-0.1,0.1-0.1,0.3-0.2,0.4c-0.4,0.7-0.9,1.5-1.4,2.1c-0.1,0.1-0.2,0.2-0.3,0.3c-0.5,0.7-1.2,1.2-1.9,1.7
		c-0.1,0.1-0.2,0.2-0.4,0.2c-0.6,0.3-1.3,0.6-2,0.8c-0.3,0.1-0.7,0.2-1.1,0.2c-0.2,0-0.3,0-0.4,0c-1,0-2-0.1-2.9-0.5l-0.4-0.2
		c-0.7-0.3-1.4-0.6-2-1l-0.3-0.2c-0.8-0.5-1.5-1.2-2.2-1.8l-0.3-0.3c-0.7-0.7-1.3-1.4-1.9-2.1L273,61c-0.6-0.7-1.1-1.5-1.6-2.2
		l-0.2-0.3c-0.8-1.2-1.5-2.5-2.2-3.8L273.5,54.4z"/>
	<path class="st0" d="M289.1,49.7l4.5,1.1c0.8,3.6-1.2,7.8-1.2,7.8l-2.5-1.4C289,54.8,288.7,52.3,289.1,49.7z"/>
	<path class="st3" d="M274.7,56.3l0.2,0.3l-3.4,2l-0.2-0.3L274.7,56.3z"/>
	<path class="st3" d="M276.4,58.5l0.3,0.3l-3.2,2.3l-0.3-0.3L276.4,58.5z"/>
	<path class="st3" d="M278.2,60.6c0.1,0.1,0.2,0.2,0.3,0.3l-3,2.7l-0.3-0.3L278.2,60.6z"/>
	<path class="st3" d="M280.1,62.3c0.1,0.1,0.2,0.2,0.3,0.2l-2.4,3.1l-0.3-0.2L280.1,62.3z"/>
	<path class="st3" d="M281.8,63.3c0.1,0,0.3,0.1,0.4,0.2l-1.7,3.4l-0.4-0.2L281.8,63.3z"/>
	<path class="st3" d="M283.6,63.7c0.2,0,0.3,0,0.4,0l-0.1,3.6c-0.2,0-0.3,0-0.4,0L283.6,63.7z"/>
	<path class="st3" d="M286.1,62.9l1.2,3.2c-0.1,0.1-0.2,0.2-0.4,0.2l-1.2-3.2C285.9,63,286,62.9,286.1,62.9z"/>
	<path class="st3" d="M287.4,61.6l2.1,2.5c-0.1,0.1-0.2,0.2-0.3,0.3l-2.1-2.5C287.2,61.8,287.3,61.7,287.4,61.6z"/>
	<path class="st3" d="M288.7,59.6l2.5,1.9c-0.1,0.1-0.1,0.3-0.2,0.4l-2.5-1.9C288.5,59.9,288.6,59.8,288.7,59.6z"/>
	<path class="st1" d="M283.2,39.5c0-0.4,0.4-0.8,0.9-0.8h7.4l0,0c0.4,0.1,0.7,0.4,0.6,0.8l-1.7,14.6c0,0.4-0.4,0.7-0.9,0.7h-7.4H282
		c-0.3,0-0.6-0.4-0.5-0.7L283.2,39.5z"/>
	<path class="st4" d="M284.7,38.7h6.3c0.4,0,1.2,0.3,1.1,0.7l-1.7,14.8c0,0.4-0.8,0.7-1.2,0.7h-6.3c-0.1,0-0.1,0-0.2,0
		c-0.3-0.1-0.5-0.4-0.4-0.7l1.7-14.7C284,39.1,284.3,38.7,284.7,38.7z"/>
	<path class="st0" d="M283.1,116c6.7,0,12.1-6.9,12.1-15.5c0-8.5-5.4-15.5-12.1-15.5S271,91.9,271,100.5
		C271,109,276.4,116,283.1,116z"/>
	<path class="st3" d="M280.2,111.4c4.7,0,8.5-4.9,8.5-10.9s-3.8-10.9-8.5-10.9s-8.5,4.9-8.5,10.9S275.5,111.4,280.2,111.4z"/>
	<path class="st0" d="M241.1,83.9c0.3-0.5,0.8-0.9,1.4-0.9h10.4c0.3,0,0.6,0.1,0.8,0.2l5.1,3.2c0.2,0.2,0.5,0.2,0.9,0.2h5.8
		c0.4,0,0.9-0.2,1.1-0.5l2.1-2.2l0.5-0.5c0.3-0.3,0.7-0.5,1.1-0.5h7.6c0.6,0,1.2,0.3,1.4,0.9l4.2,9.7l-6.8,7.4l-30.2,1.4l-9.4-9.9
		L241.1,83.9z"/>
	<path class="st3" d="M256.7,93.2l-3.2,6.3l-10.9,0.4l-4.2-7.3l3.1-7.4c0.2-0.6,0.8-1,1.4-1h7.3c0.5,0,1,0.3,1.4,0.8l5.1,8.5"/>
	<path class="st3" d="M258.8,86.4c0.2,0.2,0.5,0.2,0.9,0.2h5.9c0.4,0,0.9-0.2,1.1-0.5l2.1-2.2h7.5c0.5,0,1,0.3,1.2,0.8l2.2,5.1
		c0,0.1,0.1,0.3,0.1,0.4c0,0.6-0.5,1.1-1.1,1.1h-19c-0.6,0-1.2-0.3-1.5-0.8l-4.4-7.3L258.8,86.4z"/>
	<path class="st1" d="M243.4,107.7V94.4c0-1,0.8-1.9,1.9-1.9h39.6c1,0,1.9,0.8,1.9,1.9v4.3c0,1.1-0.4,2.2-1.1,3l-5.3,6.3
		c-0.9,1-2.2,1.7-3.6,1.7h-31.6C244.3,109.5,243.4,108.7,243.4,107.7z"/>
	<path class="st0" d="M243.4,94.3c0-1,0.8-1.9,1.9-1.9h39.6c1,0,1.9,0.8,1.9,1.9v4.3c0,1.1-0.4,2.2-1.1,3l-5.3,6.3
		c-0.9,1-2.2,1.7-3.6,1.7h-31.6c-1,0-1.9-0.8-1.9-1.9V94.3H243.4z"/>
	<path class="st3" d="M243.4,94.3c0-1,0.8-1.9,1.9-1.9h12.5c1,0,1.9,0.8,1.9,1.9v4.3c0,1.1-0.4,2.2-1.1,3l-5.3,6.3
		c-0.9,1-2.2,1.7-3.6,1.7h-4.5c-1,0-1.9-0.8-1.9-1.9V94.3H243.4z"/>
	<path class="st3" d="M271.5,109.5h-1.4c0,0.3,0.3,0.7,0.7,0.7h4.8c0.3,0,0.7-0.2,0.9-0.4l4.8-6.3c0.5-0.7,0.6-1.4,0.2-1.7l-0.5-0.3
		c-0.3-0.2-0.5-0.2-0.9-0.2c-1.5,0.1-2.8,0.8-3.7,2L271.5,109.5z"/>
	<path class="st2" d="M277,103.5l-4.9,6.3c-0.2,0.2-0.4,0.3-0.7,0.3h4.2c0.3,0,0.7-0.2,0.9-0.4l4.8-6.3c0.8-1,0.5-1.9-0.7-1.9
		C279.1,101.7,277.9,102.4,277,103.5z"/>
	<path class="st3" d="M264.2,109.5h-1.4c0,0.3,0.3,0.7,0.7,0.7h4.8c0.3,0,0.7-0.2,0.9-0.4l4.8-6.3c0.5-0.7,0.6-1.4,0.2-1.7l-0.5-0.3
		c-0.3-0.2-0.5-0.2-0.9-0.2c-1.5,0.1-2.8,0.8-3.7,2L264.2,109.5z"/>
	<path class="st2" d="M269.7,103.5l-4.9,6.3c-0.2,0.2-0.4,0.3-0.7,0.3h4.2c0.3,0,0.7-0.2,0.9-0.4l4.8-6.3c0.8-1,0.5-1.9-0.7-1.9
		C271.9,101.7,270.6,102.4,269.7,103.5z"/>
	<path class="st3" d="M257,109.5h-1.4c0,0.3,0.3,0.7,0.7,0.7h4.8c0.3,0,0.7-0.2,0.9-0.4l4.8-6.3c0.5-0.7,0.6-1.4,0.2-1.7l-0.5-0.3
		c-0.3-0.2-0.5-0.2-0.9-0.2c-1.5,0.1-2.8,0.8-3.7,2L257,109.5z"/>
	<path class="st2" d="M262.4,103.5l-4.9,6.3c-0.2,0.2-0.4,0.3-0.7,0.3h4.2c0.3,0,0.7-0.2,0.9-0.4l4.8-6.3c0.8-1,0.5-1.9-0.7-1.9
		C264.6,101.7,263.3,102.4,262.4,103.5z"/>
	<path class="st0" d="M239.1,116c6.7,0,12.1-6.9,12.1-15.5c0-8.5-5.4-15.5-12.1-15.5c-6.7,0-12.1,6.9-12.1,15.5
		C227,109,232.4,116,239.1,116z"/>
	<path class="st3" d="M236.2,111.4c4.7,0,8.5-4.9,8.5-10.9s-3.8-10.9-8.5-10.9s-8.5,4.9-8.5,10.9S231.5,111.4,236.2,111.4z"/>
	<path class="st1" d="M251,76.6v6.3h1.5c0.5,0,1,0.2,1.4,0.6l3.7,4.2c0.2,0.2,0.5,0.3,0.7,0.3h11.2c0.5,0,1-0.4,1-1V76.6H251z"/>
	<path class="st5" d="M270.4,76.6v10.5c0,0.2,0,0.3-0.1,0.4c-0.2,0.3-0.5,0.6-0.9,0.6h-11.2c-0.3,0-0.5-0.1-0.7-0.3l-0.2-0.2
		l-0.4-0.4l-1.5-1.7l-0.4-0.4l-1.2-1.4c-0.1-0.1-0.2-0.2-0.3-0.3c-0.3-0.2-0.7-0.3-1-0.3H251v-6.3L270.4,76.6L270.4,76.6z"/>
	<path class="st3" d="M270.4,78.5H251v0.4h19.4V78.5z"/>
	<path class="st3" d="M270.4,80.6H251V81h19.4V80.6z"/>
	<path class="st3" d="M270.4,82.8v0.4h-16.9c-0.3-0.2-0.7-0.3-1-0.3H251v-0.1H270.4z"/>
	<path class="st3" d="M270.4,85v0.4h-15L255,85H270.4z"/>
	<path class="st3" d="M270.4,87.2c0,0.2,0,0.3-0.1,0.4h-13l-0.4-0.4H270.4z"/>
	<path class="st3" d="M270.4,76.6V82c-7.6-0.2-16.4-2.3-19.4-3v-2.3L270.4,76.6L270.4,76.6z"/>
	<path class="st1" d="M268.2,44.6h-14.9v8.2h14.9V44.6z"/>
	<path class="st5" d="M268.2,44.6h-14.9v8.2h14.9V44.6z"/>
	<path class="st3" d="M268.2,47.4h-14.9v0.4h14.9V47.4z"/>
	<path class="st3" d="M268.2,49.2h-14.9v0.4h14.9V49.2z"/>
	<path class="st3" d="M268.2,51h-14.9v0.4h14.9V51z"/>
	<path class="st3" d="M268.2,44.6v5.2c-4.8,0.2-11.1-1.7-14.9-3.1v-2.1C253.3,44.6,268.2,44.6,268.2,44.6z"/>
	<path class="st0" d="M241.5,26.9v14.5c0,3.1,2.6,5.7,5.7,5.7h26c3.1,0,5.7-2.5,5.7-5.7V26.9c0-3.1-2.6-5.7-5.7-5.7h-26
		C244,21.2,241.5,23.7,241.5,26.9z"/>
	<path class="st3" d="M241.5,26.9c0-3.1,2.6-5.7,5.7-5.7h10.2c-3.1,0-5.7,2.5-5.7,5.7v14.5c0,3.1,2.6,5.7,5.7,5.7h-10.2
		c-3.1,0-5.7-2.5-5.7-5.7V26.9z"/>
	<path class="st1" d="M276.6,27.1V41c0,1.9-1.5,3.5-3.5,3.5h-15.5c-1.9,0-3.5-1.5-3.5-3.5V27.1c0-1.9,1.5-3.5,3.5-3.5h15.5
		C275.1,23.7,276.6,25.2,276.6,27.1z"/>
	<path class="st3" d="M245.1,14h-0.5v16.9h0.5V14z"/>
	<path class="st0" d="M240.7,31.6c0.2-0.6,0.6-1.1,1-1.5c0.8-0.9,1.9-1.4,3.1-1.4c2.6,0,4.6,2.5,4.6,5.5s-2.1,5.6-4.6,5.6
		c-1.2,0-2.3-0.5-3.1-1.4c-0.4-0.5-0.8-1-1-1.5c-0.3-0.8-0.5-1.7-0.5-2.5C240.2,33.2,240.4,32.4,240.7,31.6z"/>
	<g class="st6">
		<path d="M240.7,36.7c0.2,0.6,0.6,1.1,1,1.5c0.5,0.2,1,0.3,1.5,0.3c2.1,0,3.8-2,3.8-4.5s-1.7-4.5-3.8-4.5c-0.5,0-1,0.1-1.5,0.3
			c-0.4,0.5-0.8,1-1,1.5c0.5-0.8,1.5-1.4,2.5-1.4c1.8,0,3.3,1.8,3.3,4s-1.5,4-3.3,4C242.2,38.1,241.3,37.5,240.7,36.7z"/>
	</g>
	<path class="st0" d="M242.6,57.3c0-3,2.4-5.4,5.4-5.4h24.3c3,0,5.4,2.4,5.4,5.4v15.2c0,3-2.4,5.4-5.4,5.4H248c-3,0-5.4-2.4-5.4-5.4
		V57.3z"/>
	<path class="st3" d="M242.6,57.3c0-3,2.4-5.4,5.4-5.4h2.8c3,0,5.4,2.4,5.4,5.4v15.2c0,3-2.4,5.4-5.4,5.4H248c-3,0-5.4-2.4-5.4-5.4
		V57.3z"/>
	<path class="st1" d="M282.3,52.8l0.2-4.7l-1.7,3.1v4.3L282.3,52.8z"/>
	<path class="st1" d="M291.5,52.6l0.3,0.8l-1.3,0.5l-1.3-0.8l0.2-1.2l-0.5-0.4l0.8-2.4h0.9l-0.1-0.7l-0.7,0.3l-0.5-0.5l1.1-1.6
		l1.7,1.7v1l0.9,0.5l0.5,0.9C293.6,52.8,291.5,52.6,291.5,52.6z"/>
	<path class="st0" d="M251.2,57c0.9,2.7,3.8,7.9,12.6,7.9c10.6,0,17-9.5,17-9.5l2.9,2.3c0,0-7.3,11.4-20.1,11.4
		c-11.6,0-15.5-6.5-16.9-10.5c-0.1-0.2-0.1-0.5-0.1-0.7c0-1.3,1-2.4,2.3-2.4C250,55.5,250.9,56.1,251.2,57z"/>
	<path class="st5" d="M246.8,58.6c-0.4-1.2,0.2-2.4,1.4-2.9s2.6,0.2,3,1.4c0.1,0.2,0.2,0.5,0.3,0.8c0,0.1,0.1,0.3,0.2,0.4
		c0.3,0.7,0.7,1.2,1.1,1.8c0.1,0.1,0.2,0.2,0.3,0.3c0.6,0.7,1.2,1.4,2,1.9c0.1,0.1,0.2,0.2,0.3,0.3c0.7,0.5,1.5,0.9,2.4,1.3l0.4,0.2
		c1,0.3,1.9,0.6,2.9,0.7c0.2,0,0.3,0.1,0.4,0.1c0.8,0.1,1.5,0.1,2.3,0.1c0.3,0,0.6,0,0.9,0h0.4c0.9-0.1,1.9-0.2,2.8-0.4
		c0.2,0,0.3-0.1,0.4-0.1c1-0.3,2-0.6,3-1.1l0.4-0.2c1-0.5,2-1.1,3-1.8c0.1-0.1,0.2-0.2,0.3-0.3c0.9-0.7,1.7-1.4,2.6-2.1l0.3-0.3
		c1-1,2-2.1,2.8-3.2l2.9,2.3c-1,1.4-2,2.7-3.2,3.9l-0.3,0.3c-1,0.9-2,1.8-3,2.5c-0.1,0.1-0.2,0.2-0.3,0.3c-1.1,0.8-2.2,1.5-3.4,2.1
		L273,67c-1.2,0.6-2.5,1-3.7,1.4l-0.4,0.1c-1.1,0.3-2.2,0.5-3.4,0.6h-0.4c-0.4,0-0.9,0-1.3,0c-0.9,0-1.8,0-2.6-0.1h-0.4
		c-1.4-0.2-2.7-0.4-3.9-0.8l-0.4-0.2c-1.2-0.4-2.4-1-3.5-1.7l-0.3-0.2c-1.1-0.8-2.1-1.7-2.9-2.7c-0.1-0.1-0.2-0.2-0.3-0.3
		c-0.6-0.8-1.1-1.6-1.5-2.5c-0.1-0.1-0.1-0.3-0.2-0.4C247.2,59.7,247,59.1,246.8,58.6z"/>
	<path class="st1" d="M285.4,55.5h2.1l1.8-2.3l-0.7-1.3l0.3-0.5l-1-1.1l0.4-0.7c-0.6-0.6-1.3-1.2-2-1.8c-0.2-0.1-3.1,1.8-3.1,1.8
		L285.4,55.5z"/>
	<path class="st0" d="M287.9,53.3c0-0.5-4-4-4.6-3.7c-0.7,0.3-2.9,6.6-2.9,6.6l2.9,2.2C284.8,57.5,287.9,53.8,287.9,53.3z"/>
	<path class="st3" d="M251.5,57.9c0,0.1,0.1,0.3,0.2,0.4l-4.1,2.3c-0.1-0.1-0.1-0.3-0.2-0.4L251.5,57.9z"/>
	<path class="st3" d="M252.8,60.1c0.1,0.1,0.2,0.2,0.3,0.3l-3.6,2.9c-0.1-0.1-0.2-0.2-0.3-0.3L252.8,60.1z"/>
	<path class="st3" d="M255,62.4c0.1,0.1,0.2,0.2,0.3,0.3l-2.6,3.7l-0.3-0.2L255,62.4z"/>
	<path class="st3" d="M257.7,63.9l0.4,0.2l-1.5,4.1l-0.4-0.2L257.7,63.9z"/>
	<path class="st3" d="M261.1,64.8c0.2,0,0.3,0.1,0.4,0.1L261,69h-0.4L261.1,64.8z"/>
	<path class="st3" d="M265.1,64.9l0.3,4.1H265l-0.3-4.2L265.1,64.9L265.1,64.9z"/>
	<path class="st3" d="M268.3,64.4l0.9,4l-0.4,0.1l-0.9-4C268.1,64.4,268.2,64.4,268.3,64.4z"/>
	<path class="st3" d="M271.7,63.1l1.6,3.7L273,67l-1.6-3.7L271.7,63.1z"/>
	<path class="st3" d="M275.1,61.1l2,3.4c-0.1,0.1-0.2,0.2-0.3,0.3l-2-3.4C274.9,61.2,275,61.2,275.1,61.1z"/>
	<path class="st3" d="M278,58.7l2.5,2.9l-0.3,0.3l-2.5-2.9L278,58.7z"/>
	<path class="st7" d="M284.9,43.2c-0.1-0.1-0.3-0.4-0.3-0.9s0.2-1.5,0.2-1.8c0.1-0.5,0.5-0.8,1.1-1c0.8-0.1,1.1,0.3,1.2,0.6
		c0,0.1,0.1,0.2,0,0.5c0,0.1-0.2,1.5-0.2,1.7c0,0.3-0.1,0.5-0.3,0.7C286.2,43.6,285.4,43.7,284.9,43.2z"/>
	<path class="st0" d="M284.9,43.2c-0.1-0.1-0.3-0.4-0.3-0.9s0.2-1.5,0.2-1.8c0.1-0.5,0.5-0.8,1.1-1c0.8-0.1,1.1,0.3,1.2,0.6
		c0,0.1,0.1,0.2,0,0.5c0,0.1-0.2,1.5-0.2,1.7c0,0.3-0.1,0.5-0.3,0.7C286.2,43.6,285.4,43.7,284.9,43.2z"/>
	<path class="st1" d="M285.9,43.6c-0.1,0-0.1,0-0.2,0c-0.3,0-0.7-0.1-0.9-0.3c-0.2-0.3-0.3-0.6-0.3-1c0-0.5,0.2-1.5,0.2-1.8
		c0.2-0.6,0.5-0.9,1.2-1c0.8-0.1,1.2,0.3,1.4,0.7c0,0.2,0.1,0.3,0,0.5c0,0.1-0.2,1.5-0.2,1.7c0,0.3-0.1,0.5-0.3,0.8
		C286.5,43.4,286.2,43.6,285.9,43.6z M285.9,39.7c-0.5,0.1-0.9,0.4-1,0.8c-0.1,0.3-0.2,1.3-0.2,1.7c0,0.5,0.2,0.7,0.3,0.8
		c0.2,0.3,0.5,0.3,0.7,0.3c0.3,0,0.7-0.2,0.9-0.4c0.2-0.2,0.2-0.4,0.3-0.7c0-0.2,0.2-1.5,0.2-1.7s0-0.3,0-0.4
		C287,40.1,286.8,39.5,285.9,39.7C286,39.7,285.9,39.7,285.9,39.7z"/>
	<path class="st1" d="M287,40.4c0,0.5-0.7,1-1.2,1.1c-0.3,0-0.8-0.3-0.8-0.8s0.4-0.9,0.9-1C286.5,39.7,287,40.1,287,40.4z"/>
	<path class="st1" d="M285.9,41.6L285.9,41.6c-0.2,0-0.5-0.1-0.6-0.3c-0.2-0.2-0.2-0.3-0.2-0.5c0-0.5,0.5-0.9,1-1
		c0.3,0,0.5,0,0.8,0.2c0.2,0.2,0.3,0.3,0.3,0.5C287,40.9,286.4,41.5,285.9,41.6z M285.8,41.5c0.5-0.1,1.1-0.6,1.1-1
		c0-0.2-0.1-0.3-0.2-0.4c-0.2-0.2-0.4-0.2-0.7-0.2c-0.5,0.1-0.9,0.5-0.9,0.9c0,0.2,0.1,0.4,0.2,0.5
		C285.5,41.4,285.7,41.5,285.8,41.5z"/>
	<path class="st3" d="M286.5,41.3c0.4-0.3,0.6-0.8,0.4-1.2s-0.8-0.4-1.2-0.1c-0.4,0.3-0.6,0.8-0.4,1.2
		C285.5,41.6,286.1,41.6,286.5,41.3z"/>
	<g class="st8">
		<path class="st9" d="M285.3,40.9c0-0.4,0.4-0.8,0.9-0.9c0.4-0.1,0.7,0.2,0.8,0.5c0-0.4-0.4-0.7-0.9-0.6c-0.5,0.1-0.9,0.5-0.9,1
			s0.4,0.8,0.9,0.7l0,0C285.7,41.6,285.3,41.3,285.3,40.9z"/>
	</g>
	<path class="st1" d="M286.1,41.6c-0.3,0-0.6,0-0.7-0.2c-0.2-0.2-0.2-0.3-0.2-0.6c0-0.5,0.5-1,1-1c0.3,0,0.5,0,0.7,0.2
		s0.2,0.3,0.2,0.6C287.1,41,286.6,41.5,286.1,41.6z M286.1,39.9c-0.5,0.1-0.9,0.5-0.9,0.9c0,0.2,0.1,0.3,0.2,0.5
		c0.2,0.2,0.4,0.2,0.6,0.2c0.5-0.1,0.9-0.5,0.9-0.9c0-0.2-0.1-0.3-0.2-0.5S286.4,39.9,286.1,39.9z"/>
	<path class="st9" d="M286.5,41.2c0.3-0.2,0.4-0.6,0.3-0.9c-0.2-0.3-0.6-0.3-0.9-0.1s-0.4,0.6-0.3,0.9
		C285.7,41.3,286.1,41.4,286.5,41.2z"/>
	<path class="st9" d="M286.3,41c0.2-0.1,0.2-0.3,0.2-0.5c-0.1-0.1-0.3-0.2-0.5,0c-0.2,0.1-0.2,0.3-0.2,0.5
		C285.9,41.1,286.1,41.1,286.3,41z"/>
	<path class="st4" d="M286.3,40.9c0.1-0.1,0.2-0.2,0.1-0.3s-0.2-0.1-0.4,0c-0.1,0.1-0.2,0.2-0.1,0.3S286.2,41,286.3,40.9z"/>
	<g class="st6">
		<path class="st9" d="M286.4,40.5c0.1-0.1,0.1-0.2,0.1-0.2c0-0.1-0.2-0.1-0.2,0c-0.1,0.1-0.1,0.2-0.1,0.2
			C286.2,40.6,286.3,40.6,286.4,40.5z"/>
	</g>
	<g class="st6">
		<path class="st9" d="M286.6,40.6C286.6,40.6,286.6,40.7,286.6,40.6c-0.1,0.1-0.2,0-0.2,0S286.5,40.5,286.6,40.6
			C286.6,40.5,286.6,40.6,286.6,40.6z"/>
	</g>
	<path class="st4" d="M286.1,41.4c-0.2,0-0.4,0-0.5-0.1s-0.2-0.3-0.2-0.4c0-0.3,0.3-0.7,0.7-0.7c0.2,0,0.4,0,0.5,0.2
		c0.1,0.1,0.2,0.3,0.2,0.4C286.8,40.9,286.5,41.3,286.1,41.4z M286.1,40.2c-0.3,0-0.6,0.3-0.6,0.7c0,0.1,0,0.2,0.2,0.3
		c0.1,0.1,0.3,0.2,0.4,0.1c0.3,0,0.6-0.3,0.6-0.7c0-0.1,0-0.2-0.2-0.3C286.5,40.2,286.3,40.1,286.1,40.2z"/>
	<path class="st1" d="M286.7,42.2c0,0.5-0.7,1-1.2,1.1c-0.3,0-0.8-0.3-0.8-0.8s0.4-0.9,0.9-1C286.2,41.5,286.7,41.9,286.7,42.2z"/>
	<path class="st1" d="M285.6,43.4c-0.2,0-0.5-0.1-0.6-0.3c-0.2-0.2-0.2-0.3-0.2-0.5c0-0.5,0.5-0.9,1-1c0.3,0,0.5,0,0.8,0.2
		c0.2,0.2,0.3,0.3,0.3,0.5C286.8,42.7,286.1,43.3,285.6,43.4z M285.6,43.3c0.5-0.1,1.1-0.6,1.1-1c0-0.2-0.1-0.3-0.2-0.4
		c-0.2-0.2-0.4-0.2-0.7-0.2c-0.5,0.1-0.9,0.5-0.9,0.9c0,0.2,0.1,0.4,0.2,0.5C285.2,43.1,285.4,43.3,285.6,43.3z"/>
	<path class="st9" d="M286.3,43.1c0.4-0.3,0.6-0.8,0.4-1.2s-0.8-0.4-1.2-0.1c-0.4,0.3-0.6,0.8-0.4,1.2S285.8,43.4,286.3,43.1z"/>
	<g class="st8">
		<path class="st9" d="M285,42.6c0-0.4,0.4-0.8,0.9-0.9c0.4-0.1,0.7,0.2,0.8,0.5c0-0.4-0.4-0.7-0.9-0.6c-0.5,0.1-0.9,0.5-0.9,1
			s0.4,0.8,0.9,0.7l0,0C285.4,43.3,285,43.1,285,42.6z"/>
	</g>
	<path class="st1" d="M285.8,43.3c-0.3,0-0.5,0-0.7-0.2s-0.2-0.3-0.2-0.5c0-0.5,0.5-0.9,1-1c0.3,0,0.5,0,0.7,0.2s0.2,0.3,0.2,0.5
		C286.8,42.8,286.3,43.3,285.8,43.3z M285.8,41.7c-0.5,0.1-0.9,0.5-0.9,0.9c0,0.2,0.1,0.3,0.2,0.5c0.2,0.2,0.4,0.2,0.6,0.2
		c0.5-0.1,0.8-0.5,0.9-0.9c0-0.2-0.1-0.3-0.2-0.5C286.3,41.8,286.1,41.7,285.8,41.7z"/>
	<path class="st4" d="M286.2,43c0.3-0.2,0.4-0.6,0.3-0.9c-0.2-0.3-0.6-0.3-0.9-0.1s-0.4,0.6-0.3,0.9C285.5,43.1,285.9,43.2,286.2,43
		z"/>
	<path class="st0" d="M286,42.7c0.2-0.1,0.2-0.3,0.2-0.5c-0.1-0.1-0.3-0.2-0.5,0c-0.2,0.1-0.2,0.3-0.2,0.5
		C285.6,42.8,285.9,42.9,286,42.7z"/>
	<path class="st4" d="M286,42.7c0.1-0.1,0.2-0.2,0.1-0.3s-0.2-0.1-0.4,0c-0.1,0.1-0.2,0.2-0.1,0.3C285.7,42.7,285.9,42.8,286,42.7z"
		/>
	<g class="st6">
		<path class="st9" d="M286.1,42.3c0.1-0.1,0.1-0.2,0.1-0.2c0-0.1-0.2-0.1-0.2,0c-0.1,0.1-0.1,0.2-0.1,0.2
			C285.9,42.4,286,42.4,286.1,42.3z"/>
	</g>
	<g class="st6">
		<path class="st9" d="M286.3,42.4L286.3,42.4l-0.1-0.1v0.1C286.2,42.4,286.3,42.5,286.3,42.4z"/>
	</g>
	<path class="st3" d="M285.9,43.1c-0.2,0-0.4,0-0.5-0.1s-0.2-0.3-0.2-0.4c0-0.3,0.3-0.7,0.7-0.7c0.2,0,0.4,0,0.5,0.2
		c0.1,0.1,0.2,0.3,0.2,0.4C286.6,42.8,286.3,43.1,285.9,43.1z M285.9,41.9c-0.3,0-0.6,0.3-0.6,0.7c0,0.1,0,0.2,0.2,0.3
		c0.1,0.1,0.3,0.2,0.4,0.1c0.3,0,0.6-0.3,0.6-0.7c0-0.1,0-0.2-0.2-0.3C286.2,41.9,286.1,41.9,285.9,41.9z"/>
	<path class="st10" d="M287.6,40.7c0,0,0.9,2.5-1.4,3.1l13.1,14.9L314,33.6L287.6,40.7z"/>
	<path class="st0" d="M292.1,13l5.2,1.4l-3.9,0.9c-2,0.3-2.9,1.2-3.2,2.2l-1.2,9.7l-1.5-9.7c-0.3-0.9-1.1-1.6-2-2l-5-1.2l5.3-1.5
		c0.9-0.3,1.6-1.1,1.9-2L289,0l0.9,10.7C290.3,11.7,291.1,12.6,292.1,13z"/>
	<path class="st0" d="M295.2,24.6l1.2,0.3l-0.9,0.2c-0.5,0.1-0.7,0.3-0.7,0.5l-0.3,2.2l-0.3-2.2c-0.1-0.2-0.3-0.4-0.5-0.5l-1.2-0.3
		l1.2-0.3c0.2-0.1,0.3-0.2,0.4-0.5l0.3-2.5l0.2,2.5C294.8,24.4,295,24.5,295.2,24.6z"/>
</g>
</svg>
