<?xml version="1.0" encoding="utf-8"?>
<!-- Generator: Adobe Illustrator 25.0.1, SVG Export Plug-In . SVG Version: 6.00 Build 0)  -->
<svg version="1.1" id="Layer_1" xmlns="http://www.w3.org/2000/svg" xmlns:xlink="http://www.w3.org/1999/xlink" x="0px" y="0px"
	 viewBox="0 0 220 188" style="enable-background:new 0 0 220 188;" xml:space="preserve">
<style type="text/css">
	.st0{fill:#4C956C;}
	.st1{opacity:0.3;}
	.st2{fill:#263238;}
	.st3{opacity:0.2;fill:#FFFFFF;enable-background:new    ;}
	.st4{opacity:0.2;enable-background:new    ;}
	.st5{opacity:0.5;fill:#FFFFFF;enable-background:new    ;}
	.st6{opacity:0.3;fill:#FFFFFF;enable-background:new    ;}
	.st7{opacity:0.4;}
	.st8{fill:#DFE7EF;}
	.st9{opacity:0.6;}
	.st10{fill:#F8FCFF;}
	.st11{fill:#2C6E49;}
	.st12{opacity:0.25;fill:#4C956C;}
</style>
<g>
	<g>
		<path class="st0" d="M38.7,22.2l8.9,2.5L41,26.3c-3.4,0.5-4.9,2-5.5,3.9l-2.1,16.6L31,30.1c-0.6-1.6-1.9-2.8-3.5-3.4l-8.6-2.1
			l9-2.6c1.5-0.6,2.7-1.8,3.3-3.4L33.5,0l1.6,18.4C35.6,20.1,37,21.6,38.7,22.2z"/>
		<path class="st0" d="M44,42.3l2.1,0.6l-1.5,0.4c-0.8,0.1-1.1,0.5-1.3,0.9L42.8,48l-0.6-3.9c-0.1-0.4-0.4-0.6-0.8-0.8l-2-0.5
			l2.1-0.6c0.3-0.1,0.6-0.4,0.8-0.8l0.5-4.4l0.4,4.3C43.3,41.8,43.6,42.1,44,42.3z"/>
	</g>
	<g class="st1">
		
			<image style="overflow:visible;" width="1147" height="395" xlink:href="E7B76184.png"  transform="matrix(0.24 0 0 0.24 -19.0978 129.378)">
		</image>
	</g>
	<g>
		<path class="st0" d="M219.7,124.1c-9.7,32.5-33.9,55.5-62.2,55.5c-36.8,0-66.6-38.8-66.6-86.7C90.9,44.8,120.7,6,157.5,6
			c23.6,0,44.6,16,56.3,40.5l-36.6,27.7l-12.1,9.5c0,0,0.8-1.6,1.8-4.5c1.2-4.1,1.8-8.4,1.8-12.5c0-8.2-2.3-16.4-6.8-23.6
			c-9-14.4-18.5-23.4-25.3-23.4c-0.8,0-1.6,0.2-2.3,0.4c-6.2,1.8-9.7,12.3-9.7,27.7c0,14.4,3.1,32.9,9.2,52.4
			c10.9,34.1,28.3,58.1,47,58.1c3.1,0,6.4-0.8,9.7-2.3C209.2,147.3,219.7,124.1,219.7,124.1z"/>
		<g>
			<g id="freepik--Character--inject-96_6_">
				<path class="st2" d="M73,82.5h-7c0,0-9.3,15.9-17.4,15c-6.4-0.7-9.9-12.4-9.9-12.4l-4.4,0.2c0,0,2.3,15.1,12.9,17.8
					C61.6,106.6,73,82.5,73,82.5z"/>
				<path class="st3" d="M73,82.5c-1.1,2.1-2.3,4.2-3.6,6.2l-0.4,0.6c-0.8,1.1-1.6,2.3-2.6,3.6l-0.4,0.6c-0.9,1.2-2,2.3-3,3.4
					l-0.5,0.5c-1.1,1.1-2.3,2.1-3.6,3l-0.6,0.4c-1,0.7-2.1,1.2-3.2,1.7l-0.7,0.2c-1.5,0.6-3.2,0.8-4.8,0.8c-0.2,0-0.5,0-0.7,0
					c-0.6-0.1-1.2-0.2-1.8-0.3c-1.1-0.3-2.2-0.7-3.2-1.3c-0.2-0.1-0.4-0.2-0.6-0.4c-1.2-0.8-2.2-1.7-3.1-2.7
					c-0.2-0.2-0.3-0.4-0.5-0.5c-0.9-1.1-1.6-2.2-2.3-3.5c-0.1-0.2-0.2-0.4-0.3-0.6c-1.4-2.8-2.4-5.7-2.9-8.8l4.4-0.2
					c0.6,2,1.5,4,2.5,5.9c0.1,0.2,0.2,0.4,0.3,0.6c0.5,0.9,1.1,1.7,1.7,2.5c0.1,0.2,0.3,0.4,0.5,0.5c0.5,0.6,1.1,1.1,1.7,1.5
					c0.2,0.1,0.4,0.3,0.6,0.4c0.8,0.5,1.6,0.8,2.5,0.9h0.2c0.2,0,0.5,0,0.7,0c0.8,0,1.5-0.2,2.3-0.5c0.2-0.1,0.4-0.2,0.7-0.3
					c0.7-0.3,1.5-0.7,2.1-1.2c0.2-0.1,0.4-0.3,0.6-0.4c0.9-0.7,1.8-1.4,2.6-2.1c0.2-0.2,0.3-0.3,0.5-0.5c0.9-0.9,1.8-1.9,2.6-2.8
					l0.5-0.5c0.9-1.1,1.7-2.1,2.3-3.1l0.4-0.6c1.2-1.8,2-3,2-3L73,82.5z"/>
				<path class="st0" d="M39.3,87l-4.1,2.3c0,0-3.3-6.7-2-12.7l7.3-1.8C41.1,78.9,40.7,83,39.3,87z"/>
				<path class="st4" d="M69.4,88.7l-0.4,0.6l-5.5-3.2l0.4-0.6L69.4,88.7z"/>
				<path class="st4" d="M66.5,92.9l-0.4,0.6l-5.3-3.7l0.5-0.5L66.5,92.9z"/>
				<path class="st4" d="M63,96.8l-0.5,0.5L57.7,93c0.2-0.2,0.3-0.3,0.5-0.5L63,96.8z"/>
				<path class="st4" d="M59,100.3l-0.6,0.4l-3.8-5.1c0.2-0.1,0.4-0.3,0.6-0.4L59,100.3z"/>
				<path class="st4" d="M55.2,102.4l-0.7,0.2L51.8,97c0.2-0.1,0.4-0.2,0.7-0.3L55.2,102.4z"/>
				<path class="st4" d="M49.7,103.4c-0.2,0-0.5,0-0.7,0l-0.2-5.9c0.2,0,0.5,0,0.7,0L49.7,103.4z"/>
				<path class="st4" d="M46,96.5l-2,5.2c-0.2-0.1-0.4-0.2-0.6-0.4l2-5.3C45.6,96.3,45.8,96.4,46,96.5z"/>
				<path class="st4" d="M43.8,94.6l-3.5,4.1c-0.2-0.2-0.3-0.4-0.5-0.5l3.5-4.1C43.4,94.3,43.6,94.4,43.8,94.6z"/>
				<path class="st4" d="M41.6,91.5l-4,3.1c-0.1-0.2-0.2-0.4-0.3-0.6l4-3.2C41.3,91.1,41.4,91.3,41.6,91.5z"/>
				<path class="st2" d="M52.9,81.9c0.1,0.6-0.3,1.1-0.9,1.2c-0.1,0-0.1,0-0.2,0h-12c-0.7,0-1.3-0.5-1.4-1.2l-2.7-23.8
					c-0.1-0.7,0.4-1.3,1-1.4c0,0,0.1,0,0.1,0h12c0.7,0.1,1.3,0.7,1.4,1.4L52.9,81.9z"/>
				<path class="st5" d="M48.8,58l2.7,24c0.1,0.5-0.2,1-0.7,1.1c-0.1,0-0.2,0-0.3,0H40.4c-0.7,0-1.9-0.4-2-1.1L35.7,58
					c-0.1-0.7,1.1-1.2,1.8-1.2h10.2C48.3,56.8,48.8,57.3,48.8,58z"/>
				<ellipse class="st2" cx="50.4" cy="157.4" rx="19.7" ry="25.2"/>
				<ellipse class="st4" cx="55.1" cy="157.4" rx="13.8" ry="17.7"/>
				<path class="st0" d="M125.3,144.4l-15.4,16.1l-49.1-2.2l-11.1-12.1l6.9-15.8c0.4-0.9,1.3-1.5,2.3-1.5h12.3
					c0.7,0,1.4,0.3,1.8,0.8l0.7,0.8l3.4,3.7c0.5,0.5,1.1,0.8,1.8,0.8h9.5c0.5,0,1-0.1,1.4-0.4l8.2-5.3c0.4-0.3,0.9-0.4,1.3-0.4h16.9
					c1,0,1.9,0.6,2.3,1.4L125.3,144.4z"/>
				<path class="st4" d="M93.3,146.3l8.3-13.9c0.5-0.8,1.3-1.2,2.2-1.2h11.9c1,0,2,0.6,2.3,1.6l5,12l-6.8,11.9l-17.7-0.7l-5.3-10.3"
					/>
				<path class="st4" d="M98.1,129.2L91,141.2c-0.5,0.9-1.4,1.4-2.4,1.4H57.7c-1,0-1.7-0.8-1.7-1.7c0-0.2,0-0.5,0.1-0.7l3.5-8.4
					c0.3-0.8,1.1-1.3,2-1.3h12.2l3.4,3.7c0.5,0.5,1.1,0.8,1.8,0.8h9.5c0.5,0,1-0.1,1.4-0.4L98.1,129.2z"/>
				<path class="st2" d="M111.8,172.2H60.4c-2.2,0-4.3-1-5.8-2.7L46,159.3c-1.1-1.4-1.8-3.1-1.8-4.9v-7c0-1.7,1.4-3,3-3c0,0,0,0,0,0
					h64.5c1.7,0,3,1.4,3,3v0v21.7C114.8,170.8,113.4,172.2,111.8,172.2z"/>
				<path class="st6" d="M114.8,147.4v21.7c0,1.7-1.4,3-3,3h0H60.4c-2.2,0-4.3-1-5.8-2.7L46,159.3c-1.1-1.4-1.8-3.1-1.8-4.9v-7
					c0-1.7,1.4-3,3-3c0,0,0,0,0,0h64.5C113.4,144.4,114.8,145.7,114.8,147.4C114.8,147.4,114.8,147.4,114.8,147.4z"/>
				<path class="st4" d="M114.8,147.4v21.7c0,1.7-1.4,3-3,3h0h-7.3c-2.2,0-4.3-1-5.8-2.7l-8.6-10.2c-1.1-1.4-1.8-3.1-1.8-4.9v-7
					c0-1.7,1.4-3,3-3c0,0,0,0,0,0h20.4C113.4,144.4,114.8,145.7,114.8,147.4C114.8,147.4,114.8,147.4,114.8,147.4z"/>
				<path class="st2" d="M69.2,172.2l-7.9-10.3c-1.5-1.8-3.7-3-6-3.2c-0.5,0-1,0.1-1.4,0.4l0,0l-0.8,0.6l0,0
					c-0.7,0.5-0.7,1.5,0.2,2.7l7.8,10.2c0.3,0.4,0.9,0.7,1.4,0.7h7.9c0.6,0,1.1-0.5,1.1-1L69.2,172.2L69.2,172.2z"/>
				<path class="st3" d="M54.5,159.3L54.5,159.3c-1.9,0-2.4,1.4-1.1,3.1l7.8,10.2c0.3,0.4,0.9,0.7,1.4,0.7h6.8
					c-0.5,0-0.9-0.2-1.2-0.6l-7.9-10.3C58.8,160.6,56.7,159.5,54.5,159.3z"/>
				<path class="st2" d="M81,172.2l-7.9-10.3c-1.5-1.8-3.7-3-6-3.2c-0.5,0-1,0.1-1.4,0.4l0,0l-0.8,0.6l0,0c-0.7,0.5-0.7,1.5,0.2,2.7
					l7.8,10.2c0.3,0.4,0.9,0.7,1.4,0.7h7.9c0.6,0,1.1-0.5,1.1-1L81,172.2L81,172.2z"/>
				<path class="st3" d="M66.3,159.3L66.3,159.3c-1.9,0-2.4,1.4-1.1,3.1l7.8,10.2c0.3,0.4,0.9,0.7,1.4,0.7h6.8
					c-0.5,0-0.9-0.2-1.2-0.6l-7.9-10.3C70.6,160.6,68.6,159.5,66.3,159.3z"/>
				<path class="st2" d="M92.8,172.2L85,161.9c-1.5-1.8-3.7-3-6-3.2c-0.5,0-1,0.1-1.4,0.4l0,0l-0.8,0.6l0,0
					c-0.7,0.5-0.7,1.5,0.2,2.7l7.8,10.2c0.3,0.4,0.9,0.7,1.4,0.7h7.9c0.6,0,1.1-0.5,1.1-1L92.8,172.2L92.8,172.2z"/>
				<path class="st3" d="M78.1,159.3L78.1,159.3c-1.9,0-2.4,1.4-1.1,3.1l7.8,10.2c0.3,0.4,0.9,0.7,1.4,0.7H93
					c-0.5,0-0.9-0.2-1.2-0.6l-7.9-10.3C82.5,160.6,80.4,159.5,78.1,159.3z"/>
				<ellipse class="st2" cx="121.9" cy="157.4" rx="19.7" ry="25.2"/>
				<ellipse class="st0" cx="126.6" cy="157.4" rx="13.8" ry="17.7"/>
				<path class="st4" d="M139.3,164.7c-2.2,6.2-7,10.5-12.6,10.5c-7.6,0-13.8-7.9-13.8-17.7c0-6.9,3.1-12.9,7.6-15.8
					c-0.8,2.3-1.2,4.8-1.2,7.3c0,9.8,6.2,17.7,13.8,17.7C135.2,166.6,137.4,165.9,139.3,164.7z"/>
				<path class="st2" d="M70.9,118.6v17.2c0,0.9,0.7,1.6,1.6,1.6h0h18.2c0.5,0,0.9-0.2,1.2-0.6l6-6.9c0.6-0.6,1.4-1,2.2-1h2.4v-10.3
					H70.9z"/>
				<path class="st6" d="M102.5,118.6v10.3h-2.4c-0.6,0-1.2,0.2-1.7,0.5c-0.2,0.1-0.4,0.3-0.6,0.5l-2,2.3l-0.6,0.7l-2.4,2.8
					l-0.6,0.7l-0.3,0.4c-0.3,0.4-0.7,0.6-1.2,0.6H72.5c-0.6,0-1.2-0.4-1.4-0.9c-0.1-0.2-0.1-0.4-0.1-0.7v-17.2H102.5z"/>
				<rect x="70.9" y="121.6" class="st4" width="31.6" height="0.7"/>
				<rect x="70.9" y="125.1" class="st4" width="31.6" height="0.7"/>
				<path class="st4" d="M102.5,128.7v0.2h-2.4c-0.6,0-1.2,0.2-1.7,0.5H70.9v-0.7L102.5,128.7z"/>
				<polygon class="st4" points="95.9,132.2 95.3,132.9 70.9,132.9 70.9,132.2 				"/>
				<path class="st4" d="M92.8,135.7l-0.6,0.7H71c-0.1-0.2-0.1-0.4-0.1-0.7l0,0L92.8,135.7z"/>
				<path class="st4" d="M102.5,118.6v3.8c-5,1.2-19.3,4.6-31.6,5v-8.8H102.5z"/>
				<rect x="74.6" y="66.3" class="st2" width="24.2" height="13.4"/>
				<rect x="74.6" y="66.3" class="st6" width="24.2" height="13.4"/>
				<rect x="74.6" y="70.9" class="st4" width="24.2" height="0.7"/>
				<rect x="74.6" y="73.9" class="st4" width="24.2" height="0.7"/>
				<rect x="74.6" y="76.8" class="st4" width="24.2" height="0.7"/>
				<path class="st4" d="M98.7,66.3v3.4c-6.2,2.2-16.3,5.3-24.2,5.1v-8.5H98.7z"/>
				<path class="st0" d="M108.8,28.2H66.4c-5.1,0-9.3,4.1-9.3,9.3v23.7c0,5.1,4.1,9.2,9.3,9.2h42.3c5.1,0,9.2-4.1,9.3-9.2V37.5
					C118,32.3,113.9,28.2,108.8,28.2z"/>
				<path class="st4" d="M118,37.5v23.7c0,5.1-4.1,9.2-9.2,9.2c0,0,0,0,0,0H92.1c5.1,0,9.2-4.1,9.3-9.2c0,0,0,0,0,0V37.5
					c0-5.1-4.1-9.2-9.2-9.2c0,0,0,0,0,0h16.6C113.9,28.2,118,32.3,118,37.5C118,37.4,118,37.5,118,37.5z"/>
				<path class="st2" d="M66.4,32.3h25.2c3.1,0,5.7,2.5,5.7,5.7v22.7c0,3.1-2.5,5.7-5.7,5.7H66.4c-3.1,0-5.7-2.5-5.7-5.7V37.9
					C60.8,34.8,63.3,32.3,66.4,32.3z"/>
				<rect x="112.2" y="16.5" class="st2" width="0.8" height="27.6"/>
				<path class="st0" d="M120.1,49.3c0,1.4-0.3,2.8-0.9,4.2c-0.4,0.9-1,1.8-1.7,2.5c-1.3,1.4-3.1,2.3-5,2.3c-4.2,0-7.5-4-7.5-9
					s3.3-9,7.5-9c1.9,0,3.8,0.9,5,2.3c0.7,0.7,1.3,1.6,1.7,2.5C119.9,46.4,120.1,47.9,120.1,49.3z"/>
				<g class="st7">
					<path d="M115.2,55.8c-3,0-5.4-2.9-5.4-6.5s2.4-6.5,5.4-6.5c1.7,0,3.2,0.9,4.1,2.3c-0.4-0.9-1-1.8-1.7-2.5
						c-0.8-0.4-1.6-0.6-2.4-0.6c-3.4,0-6.2,3.3-6.2,7.3s2.8,7.3,6.2,7.3c0.8,0,1.7-0.2,2.4-0.6c0.7-0.7,1.3-1.6,1.7-2.5
						C118.4,54.9,116.9,55.7,115.2,55.8z"/>
				</g>
				<path class="st0" d="M116.2,87.1v24.8c0,4.9-4,8.9-8.9,8.9c0,0,0,0,0,0H67.8c-4.9,0-8.9-4-8.9-8.9V87.1c0-4.9,4-8.9,8.9-8.9
					h39.5C112.2,78.2,116.2,82.2,116.2,87.1C116.2,87.1,116.2,87.1,116.2,87.1z"/>
				<path class="st4" d="M116.2,87.1v24.8c0,4.9-4,8.9-8.9,8.9c0,0,0,0,0,0h-4.5c-4.9,0-8.9-4-8.9-8.9V87.1c0-4.9,4-8.9,8.9-8.9h4.5
					C112.2,78.2,116.2,82.2,116.2,87.1C116.2,87.1,116.2,87.1,116.2,87.1z"/>
				<polygon class="st2" points="54,84.1 54,77.1 51.2,72 51.6,79.7 				"/>
				<path class="st2" d="M33.3,76.4l0.9-1.5l1.5-0.8v-1.7l2.7-2.7l1.8,2.6L39.3,73l-1.1-0.5l-0.2,1.2h1.4l1.3,3.9L40,78.4l0.4,1.9
					l-2.1,1.3l-2.1-0.8l0.5-1.3C36.7,79.5,33.3,79.8,33.3,76.4z"/>
				<path class="st2" d="M105.8,84.2L105.8,84.2c2.1,0,3.8,1.7,3.8,3.8c0,0.4-0.1,0.8-0.2,1.2c-2.2,6.6-8.7,17.2-27.5,17.2
					c-20.7,0-32.7-18.6-32.7-18.6l4.8-3.7c0,0,10.4,15.5,27.7,15.5c14.3,0,19-8.5,20.5-12.8C102.7,85.1,104.2,84.1,105.8,84.2z"/>
				<path class="st6" d="M109.4,89.2c-0.3,0.9-0.6,1.8-1,2.6c-0.1,0.2-0.2,0.4-0.3,0.6c-0.7,1.4-1.5,2.8-2.5,4
					c-0.1,0.2-0.3,0.4-0.4,0.6c-1.4,1.7-3,3.2-4.8,4.4l-0.6,0.4c-1.8,1.1-3.7,2.1-5.7,2.7l-0.7,0.2c-2.1,0.6-4.2,1.1-6.4,1.3
					l-0.7,0.1c-1.3,0.1-2.8,0.2-4.2,0.2c-0.7,0-1.4,0-2.1-0.1l-0.7-0.1c-1.9-0.2-3.7-0.5-5.5-0.9l-0.7-0.2c-2.1-0.6-4.1-1.3-6.1-2.3
					l-0.6-0.3c-2-1-3.8-2.1-5.6-3.4c-0.2-0.1-0.4-0.3-0.6-0.4c-1.7-1.3-3.4-2.7-4.9-4.2l-0.5-0.5c-1.9-1.9-3.7-4-5.3-6.3l4.8-3.7
					c1.4,1.9,2.9,3.7,4.6,5.3l0.5,0.5c1.3,1.2,2.7,2.4,4.2,3.4c0.2,0.1,0.4,0.3,0.6,0.4c1.6,1.1,3.2,2,4.9,2.9l0.6,0.3
					c1.6,0.7,3.2,1.3,4.9,1.7c0.2,0.1,0.5,0.1,0.7,0.2c1.5,0.4,3,0.6,4.6,0.7l0.7,0c0.5,0,1,0,1.4,0c1.2,0,2.5-0.1,3.7-0.2
					c0.2,0,0.5-0.1,0.7-0.1c1.6-0.2,3.2-0.6,4.8-1.1l0.7-0.2c1.4-0.5,2.6-1.2,3.8-2.1c0.2-0.1,0.4-0.3,0.6-0.4
					c1.2-0.9,2.3-1.9,3.2-3.1c0.2-0.2,0.3-0.4,0.4-0.6c0.7-0.9,1.3-1.9,1.8-3c0.1-0.2,0.2-0.4,0.3-0.7c0.2-0.5,0.4-0.9,0.5-1.3
					c0.7-2,2.9-3,4.9-2.2C109,85.2,110,87.3,109.4,89.2L109.4,89.2z"/>
				<path class="st2" d="M50,74.5c0,0-4.6-3.1-5.1-2.9c-1.1,0.9-2.2,1.9-3.2,2.9l0.7,1.1l-1.6,1.8l0.5,0.8l-1.2,2.1l2.9,3.8h3.5
					L50,74.5z"/>
				<path class="st0" d="M50,88.9l4.8-3.7c0,0-3.7-10.2-4.8-10.7s-7.5,5.1-7.5,6S47.6,87.5,50,88.9z"/>
				<path class="st4" d="M108.3,91.8c-0.1,0.2-0.2,0.4-0.3,0.6l-6.7-3.7c0.1-0.2,0.2-0.4,0.3-0.7L108.3,91.8z"/>
				<path class="st4" d="M105.5,96.4c-0.1,0.2-0.3,0.4-0.4,0.6l-5.9-4.8c0.2-0.2,0.3-0.4,0.4-0.6L105.5,96.4z"/>
				<path class="st4" d="M100.3,101.4l-0.6,0.4l-4.3-6c0.2-0.1,0.4-0.3,0.6-0.4L100.3,101.4z"/>
				<path class="st4" d="M94,104.5l-0.7,0.2l-2.4-6.7l0.7-0.2L94,104.5z"/>
				<path class="st4" d="M86.9,106.1l-0.7,0.1l-0.7-6.8c0.2,0,0.5-0.1,0.7-0.1L86.9,106.1z"/>
				<path class="st4" d="M80.3,99.5l-0.4,6.8l-0.7-0.1l0.4-6.8L80.3,99.5z"/>
				<path class="st4" d="M75,98.7l-1.4,6.6l-0.7-0.2l1.4-6.6C74.5,98.6,74.8,98.7,75,98.7z"/>
				<path class="st4" d="M69.4,96.8l-2.6,6l-0.6-0.3l2.6-6L69.4,96.8z"/>
				<path class="st4" d="M63.9,93.7l-3.3,5.5c-0.2-0.1-0.4-0.3-0.6-0.4l3.3-5.5C63.5,93.4,63.7,93.5,63.9,93.7z"/>
				<path class="st4" d="M59.1,89.9L55,94.5L54.5,94l4.1-4.7L59.1,89.9z"/>
			</g>
			<g>
				<g>
					<path class="st8" d="M47.4,64.1c0.2-0.2,0.5-0.6,0.5-1.4c-0.1-0.8-0.3-2.4-0.4-2.9c-0.2-0.9-0.8-1.4-1.8-1.6
						c-1.3-0.2-1.9,0.6-2,1c-0.1,0.2-0.1,0.4-0.1,0.8c0,0.2,0.3,2.4,0.4,2.7c0.1,0.4,0.2,0.8,0.5,1.2C45.2,64.7,46.6,65,47.4,64.1z"
						/>
				</g>
				<g>
					<path class="st0" d="M47.4,64.1c0.2-0.2,0.5-0.6,0.5-1.4c-0.1-0.8-0.3-2.4-0.4-2.9c-0.2-0.9-0.8-1.4-1.8-1.6
						c-1.3-0.2-1.9,0.6-2,1c-0.1,0.2-0.1,0.4-0.1,0.8c0,0.2,0.3,2.4,0.4,2.7c0.1,0.4,0.2,0.8,0.5,1.2C45.2,64.7,46.6,65,47.4,64.1z"
						/>
				</g>
				<g>
					<path class="st2" d="M44.3,64c-0.4-0.4-0.5-0.9-0.5-1.3c-0.1-0.4-0.4-2.5-0.4-2.7c0-0.4,0-0.6,0.1-0.9c0.2-0.5,0.9-1.3,2.2-1.1
						c1.1,0.2,1.7,0.7,2,1.7c0.1,0.5,0.3,2.1,0.4,2.9c0.1,0.6-0.1,1.2-0.5,1.6c-0.4,0.4-0.9,0.6-1.5,0.6c-0.1,0-0.2,0-0.3,0
						C45.2,64.7,44.7,64.4,44.3,64z M45.6,58.4c-1.4-0.2-1.8,0.7-1.8,0.9c-0.1,0.2-0.1,0.3-0.1,0.7c0,0.2,0.3,2.4,0.4,2.7
						c0.1,0.4,0.2,0.8,0.5,1.1c0.4,0.4,0.9,0.7,1.5,0.7c0.3,0,0.8-0.1,1.2-0.5l0,0c0.1-0.1,0.5-0.5,0.4-1.3
						c-0.1-0.8-0.3-2.4-0.4-2.9C47.1,59,46.6,58.6,45.6,58.4C45.7,58.4,45.7,58.4,45.6,58.4z"/>
				</g>
				<g>
					<path class="st2" d="M43.9,59.6c0,0.7,1.1,1.6,1.9,1.7c0.5,0,1.3-0.5,1.2-1.3c0-0.7-0.7-1.4-1.5-1.6C44.7,58.4,44,59,43.9,59.6
						z"/>
					<path class="st2" d="M43.9,59.6L43.9,59.6c0-0.3,0.2-0.6,0.5-0.8c0.4-0.3,0.8-0.4,1.2-0.3c0.8,0.1,1.6,0.9,1.6,1.6
						c0,0.3-0.1,0.6-0.4,0.9c-0.3,0.3-0.6,0.4-1,0.5l0,0c0,0,0,0,0,0C44.9,61.3,43.9,60.4,43.9,59.6z M46.6,60.9
						c0.2-0.2,0.3-0.4,0.3-0.8c0-0.7-0.7-1.4-1.4-1.5c-0.4-0.1-0.8,0.1-1.1,0.3c-0.2,0.2-0.4,0.4-0.4,0.7c0,0.7,1,1.5,1.8,1.6
						c0,0,0,0,0,0C46.1,61.3,46.4,61.1,46.6,60.9z"/>
				</g>
				<g>
					<ellipse transform="matrix(0.5494 -0.8356 0.8356 0.5494 -29.705 64.9882)" class="st0" cx="45.4" cy="60" rx="1.3" ry="1.5"/>
				</g>
				<g class="st9">
					<path class="st10" d="M46.7,60.3c0-0.7-0.6-1.4-1.4-1.5c-0.7-0.1-1.2,0.2-1.3,0.8c0.1-0.6,0.7-1,1.4-0.9
						c0.8,0.1,1.5,0.8,1.5,1.6c0,0.7-0.6,1.2-1.4,1.1c0,0-0.1,0-0.1,0C46.1,61.5,46.7,61,46.7,60.3z"/>
				</g>
				<g>
					<path class="st2" d="M43.8,59.8c0-0.4,0.1-0.7,0.4-0.9c0.3-0.3,0.7-0.4,1.2-0.3c0.9,0.1,1.6,0.9,1.6,1.7c0,0.4-0.1,0.7-0.4,0.9
						c-0.3,0.3-0.7,0.4-1.2,0.3c0,0,0,0,0,0C44.5,61.3,43.8,60.6,43.8,59.8z M45.4,58.7c-0.4-0.1-0.8,0-1,0.3
						c-0.2,0.2-0.3,0.5-0.3,0.8l0,0c0,0.7,0.7,1.4,1.5,1.5c0.4,0.1,0.8,0,1-0.3c0.2-0.2,0.3-0.5,0.3-0.8
						C46.8,59.5,46.2,58.9,45.4,58.7C45.4,58.7,45.4,58.7,45.4,58.7z"/>
				</g>
				<g>
					
						<ellipse transform="matrix(0.5494 -0.8356 0.8356 0.5494 -29.7388 64.9535)" class="st11" cx="45.4" cy="60" rx="0.9" ry="1.1"/>
				</g>
				<g>
					
						<ellipse transform="matrix(0.5494 -0.8356 0.8356 0.5494 -29.7388 64.9537)" class="st0" cx="45.4" cy="60" rx="0.5" ry="0.6"/>
				</g>
				<g>
					
						<ellipse transform="matrix(0.5494 -0.8356 0.8356 0.5494 -29.7388 64.9535)" class="st11" cx="45.4" cy="60" rx="0.4" ry="0.4"/>
				</g>
				<g class="st7">
					
						<ellipse transform="matrix(0.5494 -0.8356 0.8356 0.5494 -29.4608 64.4728)" class="st10" cx="45" cy="59.6" rx="0.2" ry="0.3"/>
				</g>
				<g class="st7">
					<path class="st10" d="M44.6,59.9c0,0.1,0.1,0.1,0.1,0.2c0.1,0,0.1,0,0.1-0.1s-0.1-0.1-0.1-0.2C44.6,59.7,44.5,59.8,44.6,59.9z"
						/>
				</g>
				<g>
					<path class="st11" d="M44.2,59.9c0-0.3,0.1-0.5,0.3-0.7c0.2-0.2,0.5-0.3,0.9-0.2c0.6,0.1,1.2,0.6,1.2,1.2
						c0,0.3-0.1,0.5-0.3,0.7c-0.2,0.2-0.5,0.3-0.9,0.2c0,0,0,0,0,0C44.7,61,44.2,60.5,44.2,59.9z M45.3,59.2c-0.3,0-0.5,0-0.7,0.2
						c-0.2,0.1-0.2,0.3-0.2,0.5c0,0.5,0.5,1,1,1c0.3,0,0.5,0,0.7-0.2c0.2-0.1,0.2-0.3,0.2-0.5C46.3,59.7,45.9,59.3,45.3,59.2
						C45.3,59.2,45.3,59.2,45.3,59.2z"/>
				</g>
				<g>
					<path class="st2" d="M44.4,62.5c0,0.7,1.1,1.6,1.9,1.7c0.5,0,1.3-0.5,1.2-1.3c0-0.7-0.7-1.4-1.5-1.6
						C45.2,61.3,44.4,61.9,44.4,62.5z"/>
					<path class="st2" d="M44.3,62.5L44.3,62.5c0-0.3,0.2-0.6,0.5-0.8c0.4-0.3,0.8-0.4,1.2-0.3c0.8,0.1,1.6,0.9,1.6,1.6
						c0,0.3-0.1,0.6-0.4,0.9c-0.3,0.3-0.6,0.4-1,0.5l0,0c0,0,0,0,0,0C45.4,64.2,44.3,63.3,44.3,62.5z M47.1,63.8
						c0.2-0.2,0.3-0.4,0.3-0.8c0-0.7-0.7-1.4-1.4-1.5c-0.4-0.1-0.8,0.1-1.1,0.3c-0.2,0.2-0.4,0.4-0.4,0.7c0,0.7,1,1.5,1.8,1.6
						c0,0,0,0,0,0C46.5,64.2,46.8,64,47.1,63.8z"/>
				</g>
				<g>
					
						<ellipse transform="matrix(0.5494 -0.8356 0.8356 0.5494 -31.9283 66.6589)" class="st0" cx="45.8" cy="62.9" rx="1.3" ry="1.5"/>
				</g>
				<g class="st9">
					<path class="st10" d="M47.1,63.2c0-0.7-0.6-1.4-1.4-1.5c-0.7-0.1-1.2,0.2-1.3,0.8c0.1-0.6,0.7-1,1.4-0.9
						c0.8,0.1,1.5,0.8,1.5,1.6c0,0.7-0.6,1.2-1.4,1.1c0,0-0.1,0-0.1,0C46.5,64.4,47.1,63.9,47.1,63.2z"/>
				</g>
				<g>
					<path class="st2" d="M44.3,62.7L44.3,62.7c0-0.4,0.1-0.7,0.4-0.9c0.3-0.3,0.7-0.4,1.2-0.3c0.9,0.1,1.6,0.9,1.6,1.6
						c0,0.4-0.1,0.7-0.4,0.9c-0.3,0.3-0.7,0.4-1.2,0.3c0,0,0,0,0,0C45,64.2,44.3,63.5,44.3,62.7z M45.8,61.7c-0.4-0.1-0.8,0-1,0.3
						c-0.2,0.2-0.3,0.5-0.3,0.8c0,0.7,0.7,1.4,1.4,1.5c0.4,0.1,0.8,0,1-0.3c0.2-0.2,0.3-0.5,0.3-0.8C47.2,62.5,46.6,61.8,45.8,61.7
						C45.8,61.7,45.8,61.7,45.8,61.7z"/>
				</g>
				<g>
					
						<ellipse transform="matrix(0.5494 -0.8356 0.8356 0.5494 -31.9622 66.6242)" class="st11" cx="45.8" cy="62.9" rx="0.9" ry="1.1"/>
				</g>
				<g>
					
						<ellipse transform="matrix(0.5494 -0.8356 0.8356 0.5494 -31.9622 66.624)" class="st0" cx="45.8" cy="62.9" rx="0.5" ry="0.6"/>
				</g>
				<g>
					
						<ellipse transform="matrix(0.5494 -0.8356 0.8356 0.5494 -31.9622 66.6242)" class="st11" cx="45.8" cy="62.9" rx="0.4" ry="0.4"/>
				</g>
				<g class="st7">
					
						<ellipse transform="matrix(0.5494 -0.8356 0.8356 0.5494 -31.6842 66.1436)" class="st10" cx="45.5" cy="62.4" rx="0.2" ry="0.3"/>
				</g>
				<g class="st7">
					
						<ellipse transform="matrix(0.5494 -0.8356 0.8356 0.5494 -32.1147 65.9995)" class="st10" cx="45.1" cy="62.8" rx="0.1" ry="0.2"/>
				</g>
				<g>
					<path class="st11" d="M44.6,62.8L44.6,62.8c0-0.3,0.1-0.5,0.3-0.7c0.2-0.2,0.5-0.3,0.9-0.2c0.6,0.1,1.2,0.6,1.2,1.2
						c0,0.3-0.1,0.5-0.3,0.7c-0.2,0.2-0.5,0.3-0.9,0.2c0,0,0,0,0,0C45.2,63.9,44.6,63.4,44.6,62.8z M45.8,62.1c-0.3,0-0.5,0-0.7,0.2
						c-0.2,0.1-0.2,0.3-0.2,0.5c0,0.5,0.5,1,1,1c0.3,0,0.5,0,0.7-0.2c0.2-0.1,0.2-0.3,0.2-0.5C46.8,62.6,46.3,62.2,45.8,62.1
						C45.8,62.1,45.8,62.1,45.8,62.1z"/>
				</g>
			</g>
			<path class="st12" d="M42.9,60c0,0-1.4,4.1,2.2,5.1L23.8,89.4L0,48.4L42.9,60z"/>
		</g>
	</g>
</g>
</svg>
